<svg xmlns="http://www.w3.org/2000/svg" viewBox="0 0 200 200" width="200" height="200">
  <rect width="200" height="200" fill="white"/>

  <!-- Top-left finder -->
  <rect x="10" y="10" width="56" height="56" fill="black"/>
  <rect x="18" y="18" width="40" height="40" fill="white"/>
  <rect x="26" y="26" width="24" height="24" fill="black"/>

  <!-- Top-right finder -->
  <rect x="134" y="10" width="56" height="56" fill="black"/>
  <rect x="142" y="18" width="40" height="40" fill="white"/>
  <rect x="150" y="26" width="24" height="24" fill="black"/>

  <!-- Bottom-left finder -->
  <rect x="10" y="134" width="56" height="56" fill="black"/>
  <rect x="18" y="142" width="40" height="40" fill="white"/>
  <rect x="26" y="150" width="24" height="24" fill="black"/>

  <!-- Timing pattern H -->
  <rect x="74" y="74" width="8" height="8" fill="black"/>
  <rect x="90" y="74" width="8" height="8" fill="black"/>
  <rect x="106" y="74" width="8" height="8" fill="black"/>
  <rect x="122" y="74" width="8" height="8" fill="black"/>

  <!-- Timing pattern V -->
  <rect x="74" y="90" width="8" height="8" fill="black"/>
  <rect x="74" y="106" width="8" height="8" fill="black"/>
  <rect x="74" y="122" width="8" height="8" fill="black"/>

  <!-- Data modules (mock random pattern) -->
  <rect x="82" y="82" width="8" height="8" fill="black"/>
  <rect x="98" y="82" width="8" height="8" fill="black"/>
  <rect x="114" y="82" width="8" height="8" fill="black"/>
  <rect x="130" y="82" width="8" height="8" fill="black"/>
  <rect x="146" y="82" width="8" height="8" fill="black"/>
  <rect x="162" y="82" width="8" height="8" fill="black"/>

  <rect x="90" y="90" width="8" height="8" fill="black"/>
  <rect x="106" y="90" width="8" height="8" fill="black"/>
  <rect x="130" y="90" width="8" height="8" fill="black"/>
  <rect x="154" y="90" width="8" height="8" fill="black"/>
  <rect x="170" y="90" width="8" height="8" fill="black"/>

  <rect x="82" y="98" width="8" height="8" fill="black"/>
  <rect x="114" y="98" width="8" height="8" fill="black"/>
  <rect x="138" y="98" width="8" height="8" fill="black"/>
  <rect x="162" y="98" width="8" height="8" fill="black"/>

  <rect x="90" y="106" width="8" height="8" fill="black"/>
  <rect x="106" y="106" width="8" height="8" fill="black"/>
  <rect x="122" y="106" width="8" height="8" fill="black"/>
  <rect x="146" y="106" width="8" height="8" fill="black"/>
  <rect x="170" y="106" width="8" height="8" fill="black"/>

  <rect x="82" y="114" width="8" height="8" fill="black"/>
  <rect x="98" y="114" width="8" height="8" fill="black"/>
  <rect x="130" y="114" width="8" height="8" fill="black"/>
  <rect x="154" y="114" width="8" height="8" fill="black"/>

  <rect x="90" y="122" width="8" height="8" fill="black"/>
  <rect x="114" y="122" width="8" height="8" fill="black"/>
  <rect x="138" y="122" width="8" height="8" fill="black"/>
  <rect x="162" y="122" width="8" height="8" fill="black"/>

  <rect x="82" y="130" width="8" height="8" fill="black"/>
  <rect x="106" y="130" width="8" height="8" fill="black"/>
  <rect x="122" y="130" width="8" height="8" fill="black"/>
  <rect x="146" y="130" width="8" height="8" fill="black"/>
  <rect x="170" y="130" width="8" height="8" fill="black"/>

  <rect x="90" y="138" width="8" height="8" fill="black"/>
  <rect x="114" y="138" width="8" height="8" fill="black"/>
  <rect x="138" y="138" width="8" height="8" fill="black"/>
  <rect x="162" y="138" width="8" height="8" fill="black"/>

  <rect x="82" y="146" width="8" height="8" fill="black"/>
  <rect x="98" y="146" width="8" height="8" fill="black"/>
  <rect x="122" y="146" width="8" height="8" fill="black"/>
  <rect x="154" y="146" width="8" height="8" fill="black"/>
  <rect x="170" y="146" width="8" height="8" fill="black"/>

  <rect x="90" y="154" width="8" height="8" fill="black"/>
  <rect x="106" y="154" width="8" height="8" fill="black"/>
  <rect x="130" y="154" width="8" height="8" fill="black"/>
  <rect x="146" y="154" width="8" height="8" fill="black"/>
  <rect x="162" y="154" width="8" height="8" fill="black"/>

  <rect x="82" y="162" width="8" height="8" fill="black"/>
  <rect x="114" y="162" width="8" height="8" fill="black"/>
  <rect x="138" y="162" width="8" height="8" fill="black"/>
  <rect x="170" y="162" width="8" height="8" fill="black"/>

  <rect x="90" y="170" width="8" height="8" fill="black"/>
  <rect x="106" y="170" width="8" height="8" fill="black"/>
  <rect x="122" y="170" width="8" height="8" fill="black"/>
  <rect x="154" y="170" width="8" height="8" fill="black"/>

  <!-- Alignment pattern (center) -->
  <rect x="108" y="108" width="24" height="24" fill="black"/>
  <rect x="114" y="114" width="12" height="12" fill="white"/>
  <rect x="118" y="118" width="4" height="4" fill="black"/>

  <!-- Label -->
  <text x="100" y="196" text-anchor="middle" font-size="9" font-family="sans-serif" fill="#94a3b8">MOCK QR — TEST ONLY</text>
</svg>
